<?xml version="1.0" standalone="no"?>

<svg xmlns="http://www.w3.org/2000/svg" viewBox="0 0 1920.000000 1121.000000">

<g transform="translate(0.000000,1121.000000) scale(0.100000,-0.100000)"
fill="#000000" stroke="none">
<path d="M9195 9910 c14 -27 21 -50 15 -50 -15 0 -12 -29 7 -61 16 -27 16 -32
2 -57 -8 -16 -24 -27 -37 -28 -12 -1 -20 2 -17 6 2 4 -9 17 -25 29 -33 24 -40
18 -13 -11 12 -13 13 -18 3 -18 -7 0 -22 -7 -32 -17 -14 -13 -18 -13 -18 -2 0
8 -17 22 -36 32 -29 14 -35 15 -31 4 4 -11 -5 -16 -35 -20 -23 -3 -44 -11 -48
-17 -4 -7 -7 -2 -7 13 0 17 4 24 13 20 8 -3 14 1 14 8 0 7 -3 9 -7 6 -3 -4
-12 -2 -20 4 -13 11 -17 1 -16 -38 0 -6 -6 -9 -15 -6 -10 4 -13 2 -8 -5 4 -7
2 -12 -4 -12 -6 0 -8 -4 -5 -10 3 -5 -1 -10 -10 -10 -8 0 -18 6 -21 14 -6 17
-38 10 -56 -12 -12 -13 -10 -14 10 -3 12 7 22 8 22 2 0 -5 -9 -13 -20 -16 -11
-3 -20 -13 -20 -22 0 -12 -3 -13 -13 -4 -21 17 -29 0 -10 -21 9 -10 11 -18 5
-18 -6 0 -19 12 -30 27 -14 19 -21 23 -27 13 -6 -9 -4 -11 6 -5 11 6 12 5 2
-5 -9 -10 -18 -11 -35 -3 -28 13 -51 -5 -37 -28 8 -12 13 -6 11 12 -2 12 47
-4 60 -20 16 -18 40 -71 33 -71 -3 0 -17 18 -31 40 -25 38 -63 57 -51 26 3 -8
-1 -20 -9 -26 -10 -9 -14 -9 -14 -1 0 6 -9 11 -21 11 -14 0 -19 -5 -16 -13 6
-16 -39 -11 -61 6 -7 5 -15 7 -19 4 -7 -8 17 -38 26 -33 4 3 12 -4 19 -14 10
-16 9 -18 -3 -14 -8 4 -18 -1 -21 -10 -3 -9 -15 -16 -25 -16 -15 0 -18 -5 -14
-22 3 -13 -1 -32 -8 -43 -9 -12 -12 -27 -7 -40 22 -59 28 -87 23 -104 -6 -22
-53 -36 -53 -15 0 10 -16 8 -70 -7 -51 -14 -76 -16 -90 -9 -10 5 -33 12 -52
15 -26 4 -36 1 -46 -15 -11 -18 -10 -27 9 -60 21 -37 38 -48 51 -35 3 3 -8 20
-23 36 -16 17 -29 35 -29 40 0 16 30 22 53 10 19 -10 18 -10 -13 -5 l-35 5 35
-30 c19 -17 39 -31 43 -31 5 0 7 -10 5 -22 -2 -17 -10 -23 -30 -23 -29 -1 -68
-30 -68 -51 0 -13 -46 -50 -90 -72 l-25 -12 27 5 c22 4 31 0 44 -20 21 -32 9
-47 -14 -18 -20 25 -105 31 -95 7 3 -8 16 -14 28 -14 30 0 55 -10 55 -21 0 -5
-17 -17 -37 -28 -21 -10 -49 -31 -63 -46 -23 -25 -21 -24 33 8 32 19 64 40 71
46 10 9 15 8 20 -4 4 -10 -5 -19 -29 -29 -18 -8 -41 -26 -51 -41 -9 -14 -23
-24 -30 -21 -45 17 -166 -170 -149 -231 7 -24 9 -105 7 -257 -1 -24 8 -55 22
-80 20 -34 23 -51 19 -96 -3 -36 2 -84 16 -142 16 -68 18 -93 10 -117 -9 -24
-7 -40 7 -76 12 -32 20 -43 28 -35 7 7 6 14 -2 22 -14 14 -17 82 -3 74 14 -9
23 -93 13 -113 -12 -23 -23 -161 -11 -142 12 20 23 -14 14 -48 -5 -21 -8 -24
-16 -12 -6 10 -9 7 -9 -13 0 -15 5 -30 10 -33 6 -3 10 2 10 11 0 41 12 -1 25
-91 17 -114 19 -201 5 -210 -5 -3 -10 -1 -10 5 0 7 -18 2 -42 -12 -49 -27 -76
-71 -58 -93 6 -8 13 -31 14 -53 4 -48 59 -172 104 -230 18 -24 31 -47 27 -50
-3 -3 -24 -5 -46 -5 -23 1 -37 -2 -34 -8 4 -5 -4 -9 -17 -9 -17 0 -19 3 -10 9
10 6 7 10 -13 15 -31 8 -58 -4 -31 -14 10 -3 -65 -4 -166 -3 -126 3 -178 0
-168 -7 11 -7 -10 -9 -70 -8 -82 1 -83 2 -30 8 49 7 47 7 -21 5 -42 -2 -86 -8
-97 -14 -13 -7 -103 -11 -249 -12 -146 0 -221 -4 -208 -10 13 -5 -2 -6 -40 -1
-33 4 -121 5 -195 2 -74 -2 -160 -4 -190 -5 -30 0 -58 -4 -62 -10 -4 -5 -38
-10 -76 -10 -38 0 -75 -5 -83 -11 -8 -6 -35 -15 -61 -18 -26 -4 -64 -19 -85
-33 -52 -36 -89 -50 -191 -74 -84 -20 -294 -59 -319 -59 -26 0 -12 17 27 35
80 36 32 42 -78 10 -23 -7 -50 -11 -61 -8 -10 2 -25 -2 -33 -11 -9 -8 -18 -13
-21 -10 -3 3 -13 1 -24 -5 -10 -6 -36 -18 -58 -28 l-40 -17 38 -4 c61 -5 42
-19 -45 -32 -274 -40 -353 -55 -445 -85 -112 -38 -227 -92 -345 -166 -43 -26
-78 -46 -78 -44 0 8 170 115 257 162 47 25 117 56 156 70 48 16 59 22 33 18
-89 -14 -198 -68 -371 -180 -99 -65 -100 -66 -177 -112 -86 -53 -180 -123
-280 -208 -107 -92 -215 -159 -326 -205 -162 -67 -333 -153 -320 -163 9 -6 6
-7 -10 -4 -12 3 -20 2 -17 -3 7 -12 -22 -20 -68 -19 -35 1 -38 2 -17 8 21 7
18 9 -25 15 -49 7 -162 -6 -207 -23 -13 -5 -42 -14 -64 -20 -32 -9 -55 -26
-99 -76 -48 -56 -70 -71 -148 -107 -147 -68 -282 -140 -675 -365 -54 -31 -48
-42 7 -13 23 11 41 18 41 16 0 -11 -90 -54 -125 -59 -28 -5 -34 -4 -20 3 20 8
20 9 -1 9 -37 2 -83 -19 -77 -35 3 -8 0 -14 -7 -14 -6 0 -32 -14 -58 -32 l-47
-31 30 33 c32 35 26 33 -42 -12 -27 -18 -53 -49 -72 -85 l-31 -56 26 24 27 24
-18 -30 c-26 -41 -56 -75 -80 -87 -12 -7 -7 4 15 27 l35 38 -35 -24 c-19 -13
-64 -51 -100 -84 -36 -34 -98 -87 -138 -119 -40 -31 -70 -61 -68 -65 3 -4 -9
-21 -27 -37 l-32 -29 29 33 c17 17 26 32 22 32 -8 0 -282 -226 -318 -264 -37
-37 -237 -206 -322 -271 -115 -89 -129 -102 -81 -75 48 26 36 14 -70 -71 -44
-35 -105 -86 -135 -114 l-55 -50 39 50 39 50 -42 -40 c-24 -22 -69 -77 -102
-123 -56 -79 -73 -112 -47 -96 8 5 9 2 3 -12 -35 -85 -46 -125 -56 -206 -15
-123 -6 -384 16 -458 44 -145 150 -272 278 -334 109 -53 131 -54 62 -5 -105
75 -214 171 -265 233 -28 34 -50 64 -50 68 0 20 21 3 63 -49 60 -75 135 -140
277 -243 128 -91 143 -104 86 -71 -65 37 -51 16 18 -28 67 -42 179 -84 251
-95 30 -4 35 -3 20 4 -35 17 82 0 185 -27 75 -19 134 -26 285 -33 105 -4 202
-13 216 -18 43 -17 268 -61 344 -67 84 -8 298 -42 340 -54 29 -9 29 -9 5 -11
-24 -2 -24 -2 5 -11 30 -10 60 -11 375 -8 163 1 248 -7 405 -36 44 -8 157 -26
252 -40 94 -13 191 -29 215 -34 24 -6 66 -14 93 -20 101 -21 361 -82 385 -90
14 -5 47 -15 74 -22 36 -9 44 -14 31 -19 -13 -4 0 -10 40 -18 79 -16 104 -13
35 4 l-55 13 50 -5 c28 -3 97 -12 155 -20 58 -8 155 -19 215 -25 61 -5 191
-25 290 -44 99 -18 225 -41 280 -51 115 -19 276 -59 314 -77 29 -14 34 -32 51
-197 6 -63 17 -176 25 -250 8 -74 30 -304 50 -511 19 -208 38 -402 41 -433 l7
-56 2097 0 c1856 0 2099 2 2104 15 3 8 12 15 21 15 8 0 15 5 15 10 0 6 -9 10
-20 10 -27 0 -25 28 3 40 l22 9 -23 0 c-13 1 -21 5 -18 10 9 13 46 1 46 -15 0
-8 -9 -14 -20 -14 -11 0 -20 -4 -20 -10 0 -5 9 -10 20 -10 27 0 25 -28 -2 -40
-16 -6 -18 -9 -6 -9 9 -1 24 -4 33 -7 9 -4 15 -3 14 2 -4 26 3 37 11 16 l9
-22 2000 0 2000 0 5 32 c3 18 8 91 11 163 3 72 13 211 21 310 7 99 18 252 24
340 5 88 12 189 15 225 2 36 7 111 11 167 8 123 11 127 121 155 85 21 112 35
48 23 -118 -21 55 29 225 65 99 21 128 24 95 10 -34 -14 4 -11 61 6 57 16 73
28 27 19 -25 -5 -25 -4 6 10 18 9 54 20 80 25 26 5 67 16 92 24 24 9 53 15 64
15 l20 0 -20 -9 c-16 -7 -16 -9 -4 -9 24 -1 269 75 321 100 40 19 21 20 -29 2
-10 -3 -16 -4 -13 -1 8 9 151 64 230 88 41 13 118 26 170 30 52 4 115 12 140
19 25 6 74 17 110 25 36 8 74 17 85 21 13 4 12 1 -5 -9 -42 -26 -7 -18 61 14
67 31 69 41 3 15 -36 -14 -37 -14 -19 0 11 9 31 18 45 22 62 14 238 75 268 93
25 15 50 20 110 20 42 0 138 7 212 15 74 9 176 20 225 25 50 6 139 19 199 31
122 23 155 20 44 -4 -57 -13 -62 -15 -23 -11 28 3 82 14 120 25 53 14 59 17
25 13 -25 -4 -43 -4 -40 -1 11 12 223 57 265 57 23 0 102 11 175 25 133 25
203 32 150 15 l-25 -8 25 0 c32 -1 171 36 145 38 -11 1 4 10 35 21 38 14 110
24 235 34 99 8 204 17 232 20 56 7 168 62 235 116 21 16 68 42 106 57 125 51
226 138 281 242 17 32 51 82 76 112 90 110 134 251 120 386 -5 42 -7 123 -6
179 2 56 -3 128 -9 160 -17 83 -72 193 -128 255 -27 29 -61 76 -76 104 -44 82
-77 115 -203 206 -65 47 -143 108 -173 134 -31 27 -73 64 -95 83 -22 18 -32
31 -22 28 9 -4 17 -5 17 -3 0 2 -56 51 -125 110 -134 115 -280 228 -414 321
-47 33 -125 98 -175 145 -148 139 -176 158 -315 209 -44 16 -152 67 -238 112
-267 139 -439 222 -613 293 -63 26 -140 60 -170 76 -169 87 -207 103 -262 108
-68 5 -120 -4 -97 -19 10 -6 4 -9 -21 -9 -35 0 -83 19 -50 20 8 0 -12 13 -45
27 -33 15 -153 74 -267 130 -114 57 -212 103 -219 103 -14 0 -61 33 -119 83
-24 21 -83 59 -129 85 -47 25 -158 94 -246 152 -254 169 -362 229 -566 314
-46 19 -101 42 -121 50 -21 9 -38 14 -38 11 0 -5 29 -18 155 -70 164 -67 359
-178 580 -331 50 -34 122 -79 160 -99 98 -54 131 -75 205 -135 36 -29 88 -62
115 -74 71 -29 445 -219 416 -211 -90 26 -481 221 -556 278 -33 24 -103 68
-155 97 -52 29 -111 65 -130 80 -19 15 -89 62 -155 105 -66 43 -134 90 -151
105 -44 38 -303 164 -414 201 -86 28 -102 31 -165 24 -89 -10 -149 -10 -172 1
-13 6 1 10 46 14 108 9 85 34 -71 75 -38 10 -68 22 -68 27 0 5 -4 7 -9 4 -5
-3 -34 3 -65 14 -93 32 -170 42 -381 50 l-200 7 -58 36 c-63 38 -130 57 -205
57 -26 0 -42 4 -35 8 6 4 -42 7 -107 7 -65 0 -113 -4 -107 -8 7 -4 -26 -5 -72
-1 -56 5 -82 3 -78 -3 10 -15 -65 -24 -138 -17 -35 4 -72 3 -82 -2 -10 -4 -52
-9 -93 -10 -41 -1 -160 -5 -265 -9 -104 -4 -256 -9 -336 -10 l-147 -3 -6 30
c-5 27 -8 29 -36 23 -16 -4 -30 -4 -30 0 0 15 40 82 59 99 12 11 21 28 21 40
0 18 -3 17 -27 -10 -16 -17 -33 -40 -39 -50 -7 -11 -15 -16 -19 -12 -11 10 54
88 81 99 13 4 24 14 24 21 0 10 -3 10 -9 -1 -7 -11 -10 -9 -16 8 -6 21 -43 61
-55 61 -4 0 -7 -13 -7 -29 0 -32 -40 -104 -53 -96 -5 3 -2 21 6 40 19 47 18
65 -7 91 -21 22 -21 24 -4 68 15 40 17 86 4 146 -2 8 0 96 5 195 5 126 4 201
-4 250 -6 39 -11 88 -11 110 0 22 -9 59 -21 83 -19 39 -21 48 -10 88 11 39 10
47 -8 76 -19 31 -30 89 -11 60 6 -10 10 -10 21 3 9 11 9 15 1 15 -7 0 -9 5 -5
12 4 6 3 8 -3 5 -6 -4 -16 0 -22 7 -10 12 -8 13 8 9 12 -3 21 -1 22 3 6 86 3
100 -24 95 -5 -1 -11 8 -14 19 -3 11 -12 20 -20 20 -13 0 -13 2 -2 17 8 9 9
14 3 10 -8 -5 -12 4 -13 26 -1 17 -2 43 -4 56 -1 13 4 26 12 29 9 3 11 0 6 -9
-5 -8 1 -5 13 5 27 23 28 30 4 24 -26 -7 -44 17 -36 49 4 22 3 25 -5 13 -9
-13 -11 -13 -11 2 0 9 5 20 10 23 6 3 10 14 10 24 0 21 -23 44 -33 34 -4 -3 1
-12 11 -19 12 -9 14 -16 7 -23 -8 -8 -23 3 -50 36 -21 26 -33 43 -26 38 9 -5
12 -3 9 6 -3 8 -13 13 -22 13 -20 -2 -21 10 -1 26 12 10 15 10 15 -1 0 -8 3
-10 10 -3 5 5 11 33 14 61 2 28 7 56 10 62 4 6 3 11 -1 11 -21 0 -30 -25 -27
-68 3 -33 2 -41 -4 -27 -5 11 -7 25 -5 31 2 6 -1 23 -7 38 -8 21 -7 32 1 42 9
11 8 14 -4 14 -8 0 -17 -6 -20 -12 -4 -10 -7 -10 -17 -1 -11 10 -10 14 4 19
16 6 15 9 -5 30 -13 14 -19 30 -15 41 6 17 5 17 -8 0 -10 -12 -16 -15 -21 -7
-5 8 -13 6 -26 -6 -10 -9 -19 -12 -19 -6 0 6 4 13 9 17 6 3 9 14 8 25 -1 14
-9 20 -24 20 -28 0 -31 31 -7 51 15 12 16 11 10 -9 -6 -18 -4 -22 16 -22 18 0
20 2 8 10 -8 5 -11 12 -8 16 4 3 1 12 -5 19 -10 11 -17 8 -40 -13 -21 -20 -30
-23 -39 -14 -17 17 -33 15 -18 -3 7 -8 21 -15 31 -15 23 0 24 -13 4 -30 -10
-9 -15 -9 -15 -1 0 6 -7 11 -15 11 -18 0 -35 38 -27 60 3 8 14 25 25 38 11 12
16 22 10 22 -6 0 -16 -7 -23 -15 -16 -19 -30 -19 -30 -1 0 7 -8 20 -17 27 -15
12 -16 12 -10 -4 6 -15 4 -16 -14 -6 -17 9 -24 7 -40 -10 -25 -27 -24 -39 1
-16 16 15 20 15 20 3 0 -20 -36 -52 -49 -43 -19 11 -12 46 13 68 l25 22 -26
28 c-15 15 -21 27 -14 27 22 0 58 -34 53 -50 -3 -11 -2 -12 8 -4 16 16 4 51
-23 69 -23 14 -81 10 -71 -6 3 -5 -2 -9 -10 -9 -19 0 -33 23 -18 28 7 2 21 21
32 42 16 31 17 40 6 49 -14 12 -24 4 -66 -58 -19 -28 -21 -33 -7 -28 15 5 16
3 7 -13 -8 -15 -17 -18 -48 -13 -20 3 -41 10 -47 14 -10 10 17 66 43 86 8 7
12 19 8 28 -3 10 -2 14 5 10 15 -10 -1 47 -18 65 -14 13 -14 12 -4 -7 14 -28
-3 -31 -36 -8 -16 12 -22 12 -26 2 -4 -9 -6 -9 -6 1 -1 19 -19 14 -26 -8 -8
-25 -53 -80 -66 -80 -17 0 -9 22 21 57 17 18 30 38 30 43 0 6 6 10 14 10 7 0
19 7 26 15 8 9 9 15 2 15 -6 0 -14 -4 -17 -10 -12 -20 -25 -9 -19 15 5 21 3
25 -14 25 -27 0 -35 15 -17 30 8 7 15 17 15 23 0 6 -11 1 -23 -12 -16 -14 -31
-19 -43 -15 -14 4 -15 3 -5 -4 7 -5 9 -12 4 -15 -5 -3 -14 3 -21 13 -10 16 -9
21 8 30 11 6 26 8 32 4 7 -5 8 -3 3 5 -4 8 -17 10 -34 6 -34 -9 -55 -26 -41
-35 6 -4 -2 -18 -20 -35 -22 -21 -30 -24 -30 -13 0 9 7 21 15 28 20 17 9 30
-25 30 -22 0 -28 -4 -24 -15 4 -8 1 -15 -6 -15 -6 0 -14 9 -17 19 -3 11 -19
25 -35 32 -27 11 -28 14 -12 19 12 5 24 0 35 -14 10 -12 21 -18 25 -14 11 11
-26 48 -48 48 -10 0 -29 7 -43 16 -22 14 -26 14 -51 -2 -24 -16 -25 -19 -8
-24 17 -6 17 -8 -4 -19 -19 -10 -22 -9 -22 6 0 15 -2 16 -10 3 -8 -13 -11 -12
-24 5 -9 11 -16 28 -16 37 0 31 -12 48 -33 48 -20 0 -20 1 -4 17 9 9 18 15 20
12 1 -2 10 -20 19 -39 14 -28 17 -31 17 -13 1 36 -17 73 -37 73 -10 0 -29 -11
-42 -25 -13 -14 -18 -25 -11 -25 7 0 9 -4 6 -10 -3 -5 -22 -10 -41 -10 -20 0
-45 -5 -57 -12 -20 -10 -21 -10 -8 5 8 10 28 17 48 17 20 0 32 4 28 10 -14 23
-62 9 -117 -36 -32 -25 -58 -51 -58 -57 0 -6 11 0 24 12 31 30 54 19 32 -15
-9 -13 -16 -30 -16 -37 0 -17 -34 -49 -43 -40 -4 3 -7 0 -8 -8 0 -8 -9 4 -19
26 -18 37 -18 41 -2 59 17 19 16 19 -11 1 -33 -21 -41 -17 -28 16 5 13 10 18
10 10 1 -14 41 30 41 45 0 4 -9 -1 -20 -11 -18 -16 -20 -16 -20 -2 0 10 6 17
13 17 7 0 8 3 2 8 -24 17 -45 64 -46 104 -1 38 -2 39 -8 14 -3 -17 -10 -29
-16 -27 -11 2 -25 -53 -28 -113 -2 -28 -10 -45 -30 -62 -16 -13 -25 -29 -22
-34 3 -6 0 -10 -7 -10 -8 0 -20 -15 -26 -34 -25 -68 -37 -60 -39 26 -1 57 -6
84 -17 97 -19 21 -20 43 -4 113 10 45 12 49 18 28 l6 -25 8 22 c20 60 -34 58
-70 -2 -31 -54 -26 -72 6 -21 12 20 24 36 27 36 3 0 -2 -10 -10 -23 -8 -13
-18 -45 -22 -70 -4 -26 -12 -50 -17 -53 -5 -3 -9 0 -7 7 1 8 1 25 0 39 -1 20
-3 22 -11 10 -5 -8 -7 -23 -4 -32 7 -22 -9 -23 -27 -2 -10 13 -10 17 0 24 10
6 7 12 -12 25 -33 21 -63 16 -59 -10 3 -16 1 -17 -12 -6 -8 7 -13 18 -10 25 3
8 -7 26 -22 42 l-26 29 16 -28 c9 -15 14 -33 10 -39 -5 -7 -3 -8 6 -3 9 5 11
4 6 -4 -4 -6 2 -23 13 -37 12 -15 21 -37 21 -49 0 -34 -41 -28 -61 10 -8 17
-25 46 -37 65 -24 38 -28 55 -12 45 6 -3 10 -3 10 1 0 9 -70 114 -76 114 -2 0
7 -22 21 -50z m1606 -2172 c53 -58 57 -77 25 -147 -15 -33 -26 -77 -26 -100 0
-57 -19 -95 -80 -166 -104 -121 -112 -172 -36 -251 41 -42 43 -48 49 -119 l7
-75 -223 0 c-285 0 -356 -17 -550 -129 l-87 -50 -78 34 c-42 18 -89 37 -104
40 -48 12 -34 -24 33 -87 l61 -57 -27 -7 c-15 -4 -75 -3 -134 1 -58 4 -124 7
-146 8 -90 0 -441 49 -454 63 -3 3 8 4 24 0 28 -5 76 -12 305 -40 52 -6 112
-9 133 -5 60 10 71 28 75 119 4 88 -4 100 -36 47 -45 -77 -157 -89 -303 -32
-71 28 -119 39 -217 50 -70 8 -137 17 -150 21 -13 4 -28 1 -37 -6 -42 -35
-225 27 -225 76 0 6 21 40 47 74 44 59 121 120 150 120 7 0 31 -16 53 -36 31
-28 44 -34 62 -28 42 13 66 35 87 80 12 24 25 44 30 44 5 0 25 -18 44 -39 37
-41 57 -93 57 -148 0 -18 4 -33 9 -33 30 0 130 163 146 238 9 41 -8 64 -41 56
l-24 -6 0 135 c0 148 -1 147 64 147 39 0 50 8 35 27 -15 18 -54 16 -85 -3 -31
-21 -39 -13 -55 47 -11 40 -10 50 7 84 26 52 45 63 86 47 21 -8 36 -8 42 -2 7
7 4 10 -9 10 -14 0 -16 3 -8 11 9 9 31 9 88 0 43 -6 81 -14 86 -17 12 -7 12
-44 0 -44 -5 0 -11 -10 -13 -21 -5 -32 -33 -47 -59 -31 -26 16 -37 7 -22 -17
9 -14 7 -28 -9 -62 -26 -57 -30 -145 -7 -141 20 3 22 -3 39 -90 8 -38 16 -68
19 -68 3 0 16 25 29 54 27 62 69 108 81 88 4 -6 1 -49 -5 -94 -16 -102 -18
-282 -4 -273 16 10 42 114 44 172 1 58 2 58 43 42 35 -13 43 -25 43 -66 0 -24
5 -33 17 -33 34 0 101 51 138 105 37 53 61 73 48 39 -25 -65 134 114 174 196
61 125 126 215 146 203 13 -8 2 -83 -34 -238 -30 -123 -49 -172 -112 -290 -40
-74 -44 -112 -15 -155 13 -19 36 -39 52 -45 26 -9 31 -7 53 22 l25 32 39 -19
c21 -11 44 -20 52 -20 28 0 49 41 76 153 16 63 45 150 64 193 19 44 42 107 51
142 18 71 52 125 123 194 50 49 164 117 197 118 10 0 36 -19 57 -42z m376
-688 c-9 -16 -12 -28 -7 -25 4 3 11 -14 15 -37 6 -32 4 -44 -8 -53 -14 -10
-14 -17 1 -70 10 -33 22 -60 27 -60 34 -1 86 -29 91 -50 3 -13 15 -32 26 -42
20 -17 21 -17 35 5 9 12 26 22 39 22 15 0 27 9 36 27 16 32 37 39 182 53 115
11 161 6 294 -32 34 -10 49 -10 75 1 94 39 149 53 230 58 82 6 94 4 133 -18
l43 -23 103 34 c101 34 106 35 269 35 178 0 206 -7 195 -49 -11 -41 8 -46 169
-46 139 0 155 -2 179 -21 37 -29 32 -45 -18 -58 -25 -6 -47 -15 -51 -21 -11
-18 148 -53 300 -65 44 -3 127 -19 185 -35 127 -35 237 -54 435 -75 183 -19
215 -26 229 -47 14 -23 -18 -67 -62 -87 -18 -8 -32 -18 -32 -22 0 -11 67 -34
189 -64 101 -25 115 -26 122 -12 8 13 16 13 76 -5 154 -45 312 -138 334 -195
4 -12 35 -44 68 -69 119 -92 118 -130 -3 -90 -89 30 -180 75 -321 157 -118 68
-184 94 -199 79 -16 -16 4 -40 75 -89 95 -64 270 -148 384 -183 125 -38 304
-116 503 -219 87 -45 165 -79 181 -79 19 0 44 13 71 35 23 19 46 35 51 35 5 0
9 -14 9 -30 0 -78 33 -111 197 -200 l61 -34 41 37 c45 40 62 45 81 22 7 -8 21
-15 31 -15 38 0 113 -147 112 -220 -1 -49 -48 -165 -76 -189 -18 -14 -20 -11
-18 29 3 39 -27 58 -108 70 -80 13 -141 7 -141 -14 0 -8 26 -26 58 -41 79 -37
151 -84 163 -106 7 -14 5 -28 -7 -51 -26 -50 -104 -146 -182 -220 -54 -52 -77
-68 -99 -68 -57 0 -149 21 -198 45 -30 14 -92 30 -155 39 -87 13 -123 24 -206
65 -154 74 -321 172 -524 306 -204 135 -210 138 -210 131 0 -2 37 -30 83 -62
45 -32 134 -95 197 -140 63 -45 218 -147 344 -226 l229 -143 36 -97 c20 -54
47 -108 60 -122 13 -14 54 -41 91 -61 72 -37 236 -161 234 -176 -1 -5 -2 -13
-2 -18 -1 -5 -26 -11 -54 -14 -134 -13 -306 -48 -353 -71 -60 -30 -209 -65
-227 -55 -8 4 -86 12 -173 18 -88 5 -182 14 -210 20 -27 6 -111 22 -185 37
-74 14 -191 39 -260 54 -69 16 -147 32 -175 35 -27 3 -70 11 -95 16 -129 27
-254 49 -330 59 -47 6 -101 15 -120 20 -20 5 -71 14 -114 20 -43 6 -128 25
-190 41 -174 46 -327 86 -376 97 -40 8 -41 10 -15 12 66 5 -19 18 -110 17
l-90 -1 80 -6 c79 -6 79 -6 20 -8 -33 -2 -125 -9 -205 -18 -183 -20 -167 -20
-285 10 -55 14 -115 26 -133 26 -18 0 -52 11 -75 23 -92 52 -152 67 -260 67
-56 0 -120 -5 -142 -10 -22 -5 -81 -14 -130 -20 -76 -9 -97 -8 -128 5 -20 8
-58 16 -84 17 l-48 1 55 7 c55 7 55 7 -20 7 -79 1 -156 -13 -95 -17 28 -2 28
-3 -10 -12 -190 -45 -351 -113 -389 -163 -32 -41 -80 -63 -101 -45 -9 7 -13
15 -10 18 2 3 11 -1 19 -7 8 -7 20 -10 25 -7 12 8 11 65 -1 72 -4 3 -6 9 -3
13 2 5 -5 17 -16 27 -19 17 -20 17 -13 -2 7 -16 5 -17 -7 -7 -12 9 -15 35 -15
105 0 72 1 83 7 48 4 -30 5 -19 3 35 -5 84 16 272 34 315 6 14 21 81 32 150
12 69 30 163 40 210 10 47 23 128 29 180 6 52 17 160 26 240 18 159 22 205 24
234 1 15 6 14 36 -13 36 -31 68 -40 80 -21 3 6 -3 10 -14 10 -39 0 -73 41 -77
95 l-5 50 21 -50 c41 -101 102 -101 153 1 9 17 14 34 11 37 -3 3 -7 19 -9 35
-5 42 -33 81 -62 88 -15 4 -21 10 -15 16 27 27 112 -65 96 -106 -3 -8 -1 -23
4 -32 7 -13 6 -25 -5 -43 -11 -19 -5 -15 21 12 20 21 34 42 31 47 -3 5 4 14
16 20 11 7 18 14 16 17 -3 2 6 37 19 76 13 39 24 84 24 101 0 17 5 38 11 46 8
11 9 6 4 -20 -5 -32 -4 -31 13 12 17 40 40 124 26 91 -12 -28 -21 -11 -13 25
13 55 11 62 -13 62 -12 0 -19 3 -16 6 3 3 23 2 43 -2 26 -5 33 -10 26 -17 -25
-25 -47 -23 304 -33 226 -6 262 -5 273 8 10 13 8 18 -13 32 -26 17 -33 40 -14
51 5 4 18 0 27 -8 9 -8 53 -22 97 -31 43 -9 89 -23 101 -31 41 -26 40 -111 -1
-265 -17 -63 -19 -148 -5 -170 7 -11 10 -6 10 20 0 19 16 94 36 165 25 93 34
141 30 168 -5 28 -3 36 5 31 18 -11 5 -116 -29 -234 -31 -107 -46 -194 -33
-185 11 6 31 -40 31 -70 0 -31 -16 -40 -29 -18 -9 16 -10 14 -11 -9 0 -14 -3
-35 -6 -45 -6 -17 -6 -17 8 1 10 12 21 17 32 13 21 -8 12 -25 -20 -37 -20 -8
-24 -16 -24 -49 0 -58 15 -92 61 -132 38 -34 42 -41 48 -103 6 -59 11 -71 42
-102 40 -39 94 -56 151 -47 35 5 37 4 61 -43 29 -57 60 -88 102 -104 30 -12
303 -15 354 -4 19 4 22 3 11 -4 -24 -15 -311 -25 -358 -13 -54 15 -88 44 -117
101 l-24 48 -69 4 c-57 3 -76 8 -107 32 -43 33 -65 79 -65 136 0 34 -6 47 -40
80 -49 48 -60 75 -60 148 -1 54 -1 56 -15 32 -25 -43 -18 -104 19 -178 18 -37
44 -96 57 -131 30 -81 71 -125 129 -141 66 -18 108 -42 173 -100 l57 -52 223
4 c204 3 226 5 267 25 37 18 40 21 15 17 -26 -5 -23 -1 20 24 55 32 69 46 100
99 l20 33 155 4 c135 3 166 7 240 31 47 15 97 34 112 41 25 13 37 12 110 -7
89 -23 188 -22 241 2 24 11 33 9 79 -16 52 -27 70 -39 153 -101 37 -28 38 -28
22 -4 -9 13 -17 39 -17 56 0 41 -32 81 -72 89 -18 4 -53 16 -78 27 -34 15 -72
20 -155 22 -60 2 -155 6 -210 11 l-100 7 -90 -38 -90 -39 -225 -3 c-132 -2
-227 -8 -231 -14 -4 -6 -35 -5 -89 2 -46 6 -94 9 -106 6 -13 -4 -32 -2 -41 3
-10 5 -52 15 -93 21 -41 6 -94 20 -118 30 -46 21 -82 26 -82 12 0 -4 16 -33
35 -64 42 -67 87 -98 158 -107 33 -4 51 -11 49 -19 -2 -14 0 -14 23 -6 11 5
13 9 6 14 -8 4 -4 13 10 26 22 19 22 19 17 -3 -5 -19 -1 -22 43 -28 71 -10 69
-23 -3 -19 -41 2 -72 -1 -91 -11 -22 -11 -28 -11 -24 -2 4 10 -18 13 -86 15
-50 1 -103 6 -117 12 -20 8 -45 51 -115 195 -50 101 -86 181 -81 178 5 -3 6 0
4 8 -3 8 -10 13 -16 12 -15 -3 -36 65 -25 80 9 11 35 89 38 112 3 22 18 45 26
39 5 -3 6 3 2 13 -3 10 -2 15 2 11 7 -7 45 81 45 104 0 18 -40 6 -75 -22 -21
-16 -43 -30 -50 -30 -19 0 -38 56 -31 86 8 31 55 103 82 125 26 21 74 90 74
106 0 10 -14 13 -55 12 -61 -2 -89 14 -99 57 -11 43 19 83 87 114 75 35 206
70 261 70 63 0 146 12 146 21 0 12 -134 39 -197 39 -34 0 -71 -7 -88 -16 -16
-9 -37 -17 -45 -19 -8 -2 -44 -16 -80 -31 -57 -24 -73 -26 -144 -21 -79 5
-297 -24 -386 -52 -34 -11 -231 -25 -500 -37 -99 -4 -148 -1 -185 9 l-50 14 2
42 c1 23 -2 39 -7 36 -5 -3 -10 25 -12 62 l-3 68 -75 8 c-41 5 -151 7 -245 4
-107 -2 -153 0 -125 5 25 4 120 9 212 11 l168 2 0 28 c0 23 -4 27 -29 27 -17
0 -33 5 -37 11 -4 7 0 9 14 5 33 -11 62 10 62 44 0 22 4 28 15 24 10 -4 15 0
15 14 0 11 2 29 5 39 3 10 -1 5 -9 -12 -12 -24 -15 -26 -16 -10 0 32 18 86 36
106 24 26 29 16 11 -21z m-2906 -53 c5 -9 10 -49 10 -89 1 -107 -2 -104 73
-100 36 2 74 -1 86 -8 32 -17 19 -21 -35 -11 -29 5 -58 5 -73 0 -13 -5 -34 -6
-47 -3 -22 5 -23 11 -27 99 -2 53 -8 99 -15 106 -20 20 -31 -21 -34 -131 l-3
-105 50 2 c142 5 253 4 365 -3 123 -9 121 -9 -141 -15 -146 -4 -274 -10 -285
-15 -17 -7 -18 -6 -7 8 7 9 9 19 4 22 -11 7 -3 223 9 246 10 20 59 18 70 -3z
m-260 -314 l127 -6 7 -73 c4 -40 4 -83 0 -94 -10 -31 -61 -49 -172 -60 -54 -5
-147 -14 -208 -20 -119 -11 -263 -39 -335 -65 -59 -21 -138 -67 -123 -72 19
-7 277 25 471 57 97 17 186 30 199 30 23 0 49 -21 86 -71 21 -29 21 -18 1 50
-10 35 -22 55 -37 61 -20 8 -18 9 11 9 17 1 32 6 32 11 0 6 8 10 17 10 15 0
15 -1 1 -12 -34 -27 53 -331 100 -346 8 -2 12 7 12 27 0 41 15 77 36 85 15 6
15 4 3 -10 -8 -9 -19 -39 -25 -65 -9 -39 -8 -51 2 -60 8 -6 14 -17 14 -24 0
-8 12 -27 26 -44 51 -61 121 -26 132 64 7 71 48 75 57 6 2 -17 9 -66 14 -109
6 -42 13 -111 15 -152 10 -149 45 -338 86 -472 11 -35 29 -107 40 -159 11 -52
29 -128 40 -169 11 -41 24 -109 30 -150 6 -41 17 -111 25 -155 8 -44 15 -119
15 -167 0 -85 -1 -88 -22 -88 -16 0 -31 13 -47 39 -13 21 -42 53 -64 70 -47
36 -66 37 -317 21 -190 -13 -295 -26 -380 -50 -281 -77 -293 -80 -430 -84 -85
-3 -115 -2 -80 3 l55 8 -55 1 c-30 0 -73 -3 -95 -7 l-40 -9 40 -2 40 -2 -40
-9 c-22 -4 -62 -7 -90 -7 l-50 1 50 7 50 7 -60 0 c-33 1 -71 -3 -85 -7 -25 -8
-25 -8 5 -10 21 -1 8 -7 -45 -21 -53 -13 -105 -18 -175 -17 l-100 2 75 6 c72
6 70 6 -40 8 -73 1 -135 -4 -170 -13 l-55 -15 60 4 60 5 -65 -15 c-42 -9 -91
-12 -137 -8 -81 6 -252 -24 -203 -36 20 -5 13 -9 -42 -23 -37 -9 -78 -17 -92
-17 -14 0 -85 -13 -158 -29 -183 -39 -242 -49 -318 -55 -46 -4 -55 -3 -30 3
66 16 -12 12 -96 -4 -85 -16 -115 -31 -44 -21 l45 6 -45 -14 c-61 -18 -161
-36 -191 -35 -22 1 -21 2 6 9 28 7 28 8 5 9 -26 1 -215 -47 -191 -48 7 -1 40
6 73 15 33 8 64 14 70 12 13 -5 -315 -86 -412 -103 -48 -8 -238 -50 -390 -86
-69 -16 -168 -34 -220 -40 -111 -11 -280 -3 -364 18 -33 8 -92 14 -133 14 -54
0 -95 7 -162 29 -50 17 -99 30 -110 30 -21 0 -40 38 -24 49 243 166 372 269
394 311 10 19 25 60 34 91 l14 55 143 94 c242 159 512 359 718 534 69 58 152
120 185 137 33 18 74 43 92 56 31 22 34 23 68 9 26 -11 48 -13 78 -7 24 4 52
6 63 4 10 -1 44 -3 74 -4 89 -1 241 -19 302 -36 31 -8 96 -23 145 -32 96 -18
89 -11 92 -87 1 -12 12 -32 25 -45 23 -23 32 -24 163 -24 132 -1 143 -2 253
-39 99 -33 124 -37 187 -34 83 4 115 22 150 84 12 21 39 50 60 64 21 14 45 40
54 58 9 17 26 40 38 49 23 20 63 160 105 373 26 129 40 180 52 180 4 0 16 -8
27 -17 15 -13 21 -15 24 -5 3 6 9 10 14 6 5 -3 8 20 8 53 -1 32 -4 49 -7 38
-3 -14 -11 0 -23 45 -23 80 -25 202 -5 220 8 6 20 36 26 66 6 30 15 54 20 54
5 0 26 11 46 25 29 19 45 24 70 19 41 -7 135 19 158 45 17 19 17 20 -6 32 -33
19 -210 24 -274 9 -47 -11 -59 -11 -95 3 -40 16 -41 16 -28 -1 8 -10 3 -7 -10
8 -13 14 -25 24 -25 22 -1 -2 -35 13 -76 32 -87 40 -162 61 -186 52 -25 -9 12
-35 131 -90 55 -26 128 -65 163 -88 59 -39 63 -43 58 -72 -3 -17 -11 -70 -17
-118 -7 -49 -16 -88 -20 -88 -4 0 -24 10 -44 21 -20 12 -38 19 -41 16 -3 -3
13 -29 35 -57 47 -59 52 -95 21 -144 -20 -34 -65 -64 -77 -53 -3 4 -12 2 -19
-4 -11 -9 -10 -18 3 -52 9 -23 19 -44 22 -47 3 -3 7 -30 9 -60 3 -40 -3 -73
-21 -120 -61 -163 -177 -355 -278 -464 -67 -72 -74 -77 -103 -70 -17 4 -37 7
-43 7 -7 0 -13 4 -13 9 0 4 -10 8 -23 8 -13 0 -55 11 -94 24 -38 13 -82 22
-96 19 -14 -3 -33 0 -44 6 -16 9 -16 10 6 11 19 0 21 3 12 14 -10 12 -6 17 26
25 21 6 64 11 95 11 37 0 62 5 72 15 10 11 17 12 22 4 8 -14 126 -4 157 13 34
18 107 90 107 105 0 13 -11 14 -72 7 -40 -5 -101 -9 -135 -9 -33 0 -59 -3 -57
-6 2 -3 -20 -7 -49 -7 -29 -1 -105 -9 -170 -18 -149 -20 -245 -10 -466 47
-192 49 -294 59 -347 34 -28 -13 -53 -16 -102 -12 -55 4 -68 9 -86 31 l-21 27
-92 -63 c-81 -56 -196 -145 -366 -286 -73 -60 -346 -243 -507 -340 -212 -126
-303 -166 -475 -206 l-150 -35 -67 39 c-38 21 -68 37 -68 35 0 -8 154 -107
195 -126 33 -15 36 -19 16 -19 -66 0 -416 243 -546 381 -76 81 -130 172 -141
237 -8 52 1 55 16 5 26 -85 67 -150 149 -233 69 -70 73 -74 27 -20 -81 93
-137 210 -144 298 -6 87 9 133 56 172 40 33 57 23 23 -14 -33 -35 -27 -49 17
-41 29 5 42 2 52 -9 7 -9 21 -16 32 -16 17 0 18 3 9 14 -17 20 -4 26 192 92
266 91 422 160 570 255 32 21 88 47 124 59 123 40 405 188 578 303 49 33 135
82 192 109 158 74 155 91 -13 59 -158 -30 -206 -51 -414 -186 -197 -127 -287
-178 -301 -169 -5 3 -9 14 -9 25 0 14 34 41 118 95 88 57 145 104 229 189 131
132 155 152 248 198 93 46 204 80 361 111 342 66 581 124 644 156 21 11 80 24
131 31 86 10 143 23 413 95 68 18 92 21 103 13 18 -16 129 -4 161 17 35 23
186 33 539 36 l298 3 79 -34 c97 -40 153 -40 209 3 20 15 48 31 64 36 35 10
170 12 334 3z m440 -413 c17 -63 53 -150 87 -207 16 -26 27 -53 25 -60 -2 -6
6 -18 18 -27 28 -19 40 -11 13 8 -15 12 -17 17 -6 27 8 9 12 9 12 2 0 -6 8 -9
18 -6 10 2 73 -3 140 -11 172 -23 271 -21 332 5 27 12 56 19 65 15 21 -8 19
-55 -5 -93 -11 -18 -18 -33 -16 -33 18 0 79 29 109 52 20 17 37 25 37 20 0
-17 -76 -60 -136 -78 -45 -13 -79 -15 -149 -10 -49 3 -121 8 -160 11 -60 4
-66 3 -40 -7 18 -6 98 -11 195 -12 152 -1 169 1 213 22 27 13 69 44 94 70 26
26 41 38 36 27 -19 -35 -85 -94 -129 -116 -85 -41 -322 -35 -486 11 -34 10
-54 19 -43 20 14 0 7 6 -21 19 -41 19 -118 80 -110 88 2 3 -13 37 -34 76 -21
40 -46 95 -55 122 -20 60 -45 198 -44 240 1 17 7 -6 14 -50 8 -44 19 -100 26
-125z m1281 139 c44 -12 83 -56 108 -122 31 -81 173 -323 219 -371 33 -35 113
-73 181 -86 30 -6 118 -11 195 -12 77 0 127 -4 110 -7 -20 -5 9 -9 83 -13 123
-7 167 -23 155 -56 -3 -9 -27 -46 -53 -82 -66 -92 -64 -86 -70 -180 l-5 -85
-35 3 c-19 2 -40 8 -47 14 -13 10 -110 -50 -147 -91 -19 -21 -19 -21 3 -21 19
0 22 -5 19 -32 -2 -17 -9 -33 -16 -36 -7 -2 -10 2 -6 12 8 20 -13 46 -37 46
-23 0 -30 -25 -32 -110 -2 -63 9 -103 20 -72 17 48 69 -38 58 -96 -10 -54 -84
-190 -131 -239 -33 -35 -47 -43 -77 -43 -44 0 -94 -38 -84 -64 4 -10 15 -16
25 -14 10 1 30 -7 45 -19 15 -11 50 -27 78 -33 28 -7 53 -19 56 -27 13 -34
-92 -217 -162 -281 -57 -52 -148 -97 -220 -111 -28 -5 -143 -8 -257 -6 l-206
3 -141 72 c-129 66 -141 75 -153 109 -14 42 -18 323 -4 389 l8 44 -43 -2
c-108 -6 -129 10 -129 102 0 61 1 62 50 110 27 26 58 48 67 48 11 0 35 -26 58
-61 53 -80 104 -125 157 -140 260 -70 408 -84 533 -50 99 27 182 68 208 102
24 34 37 101 30 158 -10 76 -67 97 -295 109 -150 8 -155 9 -243 48 -131 59
-206 78 -305 77 -98 0 -144 -17 -184 -63 -33 -40 -33 -67 0 -101 29 -30 26
-50 -6 -42 -14 4 -20 0 -20 -11 0 -22 -30 -33 -41 -15 -7 11 -13 9 -28 -10
l-18 -23 -6 53 c-8 68 -60 230 -93 288 -13 24 -24 49 -24 55 0 20 -161 171
-205 193 -22 11 -64 28 -93 38 -68 22 -86 52 -55 93 29 40 74 51 208 52 l120
2 -64 13 c-81 18 -93 30 -21 21 30 -3 119 -9 198 -13 118 -5 157 -3 225 12 80
17 84 20 146 84 60 62 57 54 -12 -32 -29 -36 -93 -73 -137 -80 -14 -2 7 -5 45
-6 39 -1 88 -6 110 -12 86 -22 83 -23 98 7 20 40 38 157 35 236 -1 37 -4 65
-6 64 -2 -2 -19 -28 -38 -57 -44 -67 -41 -58 15 53 25 48 49 84 54 81 6 -4 8
1 4 10 -4 10 -2 17 4 17 6 0 8 7 5 16 -4 10 -2 13 6 8 8 -5 9 -2 5 9 -4 10 -1
17 5 17 6 0 9 3 5 6 -3 4 1 21 11 38 9 17 17 42 17 56 0 19 10 30 45 48 50 25
68 27 122 11z m1233 -182 c-78 -280 -231 -374 -594 -365 -129 3 -151 6 -191
27 -47 24 -120 88 -120 105 0 6 17 -6 38 -25 51 -49 80 -65 148 -85 70 -20
233 -15 354 11 82 17 205 69 196 83 -3 5 6 20 21 33 14 13 23 18 19 12 -4 -7
-3 -13 1 -13 24 0 131 229 134 285 0 12 3 15 6 7 3 -8 -3 -41 -12 -75z m5460
-1015 c0 -57 -6 -79 -37 -145 -94 -196 -308 -434 -460 -511 -43 -22 -80 -37
-83 -35 -2 3 30 25 73 49 55 32 109 76 193 160 164 163 257 302 295 438 16 57
16 63 0 104 -17 42 -17 42 1 25 14 -14 18 -33 18 -85z m-6981 -71 c143 -38
192 -47 416 -70 240 -26 310 -49 193 -65 -85 -11 -233 -95 -233 -132 0 -18
-32 -34 -72 -35 -28 0 -30 -2 -13 -10 17 -8 17 -9 -5 -4 -14 2 -34 5 -45 6
-17 1 -16 2 5 9 23 7 22 8 -10 8 -40 0 -202 43 -264 70 -57 26 -96 74 -96 120
-1 20 -5 56 -9 79 -12 64 -17 63 133 24z m7916 9 c22 -11 45 -20 52 -20 23 0
139 -59 182 -93 22 -17 83 -72 135 -120 51 -48 114 -102 140 -119 90 -62 346
-256 366 -278 11 -12 -17 5 -62 39 -44 33 -84 61 -88 61 -20 0 -306 220 -397
307 -97 91 -122 109 -246 172 -75 39 -133 70 -129 71 4 0 25 -9 47 -20z
m-6545 -292 c-19 -57 -42 -138 -50 -180 -23 -117 -78 -261 -148 -383 -81 -140
-107 -210 -116 -312 -9 -94 -8 -91 -228 -533 -160 -321 -233 -493 -276 -650
-37 -130 -42 -160 -28 -160 6 0 11 5 11 10 0 6 8 10 18 10 14 0 15 2 2 10 -18
11 -8 23 14 14 22 -9 20 -31 -5 -39 -16 -5 -18 -10 -9 -20 15 -18 3 -38 -18
-30 -13 5 -12 1 3 -15 19 -21 19 -21 -3 -27 -22 -5 -22 -6 -5 -25 16 -18 16
-19 -5 -25 -17 -4 -20 -8 -11 -19 13 -16 2 -37 -15 -31 -24 10 -35 -7 -19 -28
15 -19 15 -19 8 5 -7 22 -6 23 9 11 9 -7 15 -19 14 -25 -1 -6 2 -28 6 -49 6
-25 4 -42 -4 -52 -13 -15 -11 -87 6 -221 l6 -51 -38 -7 c-22 -4 -65 -16 -97
-28 -34 -12 -62 -17 -66 -12 -5 5 -11 31 -15 59 -5 44 -5 47 8 30 13 -18 13
-15 9 29 -4 35 -3 47 6 42 16 -10 14 3 -4 20 -9 10 -15 35 -15 67 0 29 -5 59
-10 67 -8 12 -10 12 -10 -5 0 -17 -2 -17 -10 -5 -5 8 -9 35 -9 60 0 26 3 38 7
28 6 -15 9 -15 31 3 23 19 23 20 5 37 -21 19 -25 43 -9 54 6 5 3 8 -7 8 -11 0
-15 6 -11 18 2 10 -3 24 -11 31 -10 8 -16 9 -16 3 0 -6 4 -13 9 -16 11 -7 11
-56 0 -56 -14 0 -22 21 -10 33 7 7 6 14 -6 23 -14 9 -15 15 -5 27 10 12 9 16
-9 20 -19 5 -20 8 -9 22 11 13 10 18 -6 30 -16 12 -17 16 -4 24 8 5 18 7 22 5
14 -9 9 7 -7 22 -8 9 -18 13 -23 10 -4 -2 -8 4 -8 15 0 10 4 19 8 19 4 0 8 7
8 16 0 12 -3 14 -13 6 -10 -8 -13 -6 -14 9 -1 11 2 17 8 14 5 -4 9 1 9 10 0
12 -4 14 -19 5 -26 -13 -38 -13 -23 2 9 9 7 14 -5 24 -14 9 -15 15 -5 27 10
12 9 16 -10 20 -21 6 -21 7 -3 27 18 20 18 20 -3 20 -12 0 -22 5 -22 10 0 12
2 12 34 1 l24 -10 -22 82 c-13 45 -30 99 -39 119 -15 36 -18 37 -43 28 -34
-13 -54 8 -27 28 15 11 15 12 -3 12 -31 0 -36 11 -17 33 17 19 17 19 -4 13
-28 -9 -31 9 -6 36 16 18 16 19 -10 9 -17 -7 -28 -7 -33 0 -7 12 12 36 34 42
9 2 3 2 -15 0 -38 -4 -54 14 -28 33 10 8 21 11 24 8 3 -3 -1 -9 -9 -14 -12 -8
-10 -10 8 -10 22 0 22 1 7 30 -16 31 -29 41 -19 15 6 -15 -16 -22 -29 -9 -9
10 4 34 19 34 8 0 11 6 8 15 -5 13 -8 13 -21 -1 -21 -21 -42 -2 -23 21 10 12
10 15 -3 15 -9 0 -19 5 -22 10 -8 13 14 42 26 34 5 -3 6 2 3 10 -5 14 -8 14
-21 1 -19 -20 -33 -10 -31 21 2 17 7 23 17 19 11 -4 12 -3 1 10 -7 8 -16 13
-20 10 -4 -2 -5 7 -2 20 3 19 0 25 -13 25 -15 0 -16 2 -4 17 12 14 12 16 0 8
-11 -6 -13 -4 -8 9 4 10 3 15 -3 11 -6 -4 -10 7 -10 25 0 17 -4 29 -9 25 -5
-3 -12 -1 -16 5 -3 5 -2 10 3 10 6 0 8 9 5 19 -3 11 -10 18 -16 15 -7 -2 -21
15 -31 39 -11 23 -22 45 -24 50 -2 4 1 7 6 7 5 0 15 -14 22 -30 19 -47 22 -29
3 19 -10 27 -21 40 -30 37 -7 -3 -13 -1 -13 3 0 5 5 11 10 13 19 6 -163 375
-209 425 -12 12 -21 26 -21 31 0 5 -21 28 -47 51 -64 56 -73 63 -73 55 0 -4
-8 0 -17 8 -10 9 -27 19 -39 22 -13 4 -25 20 -32 44 -19 64 -33 166 -30 212
l3 44 117 -179 c137 -210 197 -288 316 -408 92 -94 191 -167 263 -193 80 -30
470 -10 605 31 64 19 154 79 215 142 59 62 193 244 174 236 -23 -8 -19 -1 31
52 26 28 44 42 41 33 -9 -26 -2 -22 19 10 15 23 15 25 1 13 -36 -29 -15 8 34
60 50 54 50 54 19 9 l-32 -45 41 45 c22 25 39 51 36 57 -2 7 5 17 15 23 11 6
20 17 20 24 0 8 7 19 15 26 8 7 13 16 10 20 -2 4 11 22 30 41 19 19 35 38 35
42 0 17 104 170 108 159 2 -6 -13 -57 -33 -114z"/>
<path d="M13085 6402 c-26 -14 -53 -17 -183 -15 -155 3 -196 -3 -170 -24 34
-27 124 -36 442 -40 207 -3 332 -1 338 5 14 14 -27 48 -80 67 -57 19 -81 19
-88 0 -8 -21 -31 -19 -61 5 -34 27 -154 28 -198 2z"/>
<path d="M14737 5603 c-32 -9 -56 -18 -53 -21 6 -5 -37 -42 -50 -42 -4 0 1 8
10 19 16 18 15 19 -40 23 -30 3 -59 10 -62 15 -5 8 -23 6 -57 -5 -58 -20 -68
-42 -35 -77 31 -33 150 -85 217 -95 32 -5 84 -18 115 -28 31 -11 112 -33 180
-47 68 -15 134 -33 148 -40 36 -18 78 -24 224 -36 71 -5 163 -17 205 -25 60
-13 84 -13 114 -4 42 12 41 33 -1 25 -20 -4 -22 -3 -8 3 17 8 17 9 2 25 -10 9
-35 20 -57 23 -21 4 -39 10 -39 14 0 4 -21 11 -47 15 -27 4 -52 10 -58 13 -5
3 -16 7 -25 7 -89 8 -196 30 -203 41 -4 8 -14 14 -21 14 -7 0 -21 9 -31 20
-10 11 -21 17 -25 15 -13 -8 -5 22 10 41 14 16 13 16 -7 6 -12 -7 -25 -17 -28
-22 -3 -6 -24 -10 -46 -10 -21 0 -39 -5 -39 -10 0 -9 -19 -8 -71 6 -9 3 -24
22 -34 44 -14 30 -21 37 -31 29 -9 -8 -11 -6 -7 9 3 14 -5 27 -30 46 -38 29
-41 30 -120 9z"/>
<path d="M14145 5475 c-22 -8 -58 -14 -80 -16 -27 -1 -14 -4 39 -10 86 -9 163
-40 256 -104 30 -20 61 -38 68 -39 7 -1 90 -60 185 -131 215 -161 429 -307
617 -420 165 -99 213 -140 236 -204 53 -146 48 -140 229 -261 171 -114 195
-128 195 -114 0 16 -114 101 -213 159 -107 63 -110 67 -162 204 -15 40 -37 82
-49 92 -11 10 -77 53 -146 95 -69 42 -181 114 -250 159 -123 81 -164 110 -438
313 -76 57 -157 115 -178 129 -21 15 -41 29 -44 33 -10 12 -107 77 -154 103
-54 30 -55 30 -111 12z"/>
<path d="M4848 5488 c-14 -13 -32 -24 -39 -26 -8 -2 -49 -19 -92 -39 -71 -33
-81 -36 -111 -25 -46 17 -70 15 -90 -7 -10 -11 -25 -17 -36 -14 -12 3 -22 -1
-26 -11 -8 -22 -23 -20 -50 5 -28 26 -52 20 -97 -24 -17 -18 -29 -28 -24 -23
15 20 6 28 -13 11 -11 -10 -17 -21 -14 -26 2 -4 -13 -7 -35 -6 -25 1 -37 5
-34 13 4 11 -54 41 -70 36 -4 -1 -15 4 -23 13 -9 8 -27 15 -42 15 -28 0 -82
-44 -82 -67 0 -8 -16 -29 -35 -48 -32 -33 -35 -34 -45 -16 -15 28 -45 34 -79
17 -31 -16 -71 -72 -71 -100 0 -20 39 -36 86 -36 20 0 44 -5 55 -10 17 -10 19
-7 19 19 0 22 8 35 25 47 14 9 28 14 31 12 2 -3 -7 -13 -21 -22 -28 -19 -32
-42 -10 -73 26 -36 62 -42 145 -22 96 24 95 24 128 -8 15 -16 19 -21 8 -13
-20 15 -20 14 -4 -5 19 -23 63 -31 74 -13 5 7 3 8 -7 3 -7 -5 2 8 21 29 90 97
103 106 190 132 145 44 199 66 238 96 56 45 119 80 186 103 72 25 80 46 21 59
-71 15 -72 16 -51 32 11 8 15 14 9 14 -5 0 -21 -10 -35 -22z"/>
<path d="M8494 5458 c3 -12 30 -126 60 -253 94 -395 130 -611 106 -639 -6 -8
-19 -12 -28 -9 -10 4 -3 -11 18 -40 18 -25 37 -44 43 -40 11 7 3 159 -12 213
-6 19 -15 74 -21 121 -5 47 -22 128 -36 180 -14 52 -32 130 -40 174 -7 43 -25
112 -39 152 -13 39 -28 90 -31 113 -4 22 -11 43 -16 46 -5 3 -6 -5 -4 -18z"/>
<path d="M5072 5307 c-6 -7 -40 -28 -76 -47 -36 -18 -139 -94 -228 -169 -170
-141 -276 -223 -463 -357 -162 -116 -164 -117 -120 -93 96 54 293 196 489 353
280 225 389 295 461 296 l30 1 -34 14 c-41 18 -46 18 -59 2z"/>
<path d="M9864 6176 c4 -10 10 -58 15 -105 9 -86 34 -169 66 -217 23 -35 72
-55 105 -42 14 5 54 7 90 4 65 -5 65 -5 28 9 -21 8 -54 26 -73 40 -35 28 -146
176 -204 275 -18 30 -30 46 -27 36z"/>
<path d="M9310 5642 c0 -18 41 -44 97 -62 57 -18 57 -18 20 -19 -44 -1 -69 10
-111 48 l-29 26 22 -31 c12 -17 50 -55 84 -85 l61 -54 76 -2 c41 -1 117 -5
169 -8 132 -10 276 22 341 76 l25 21 -30 -7 c-39 -8 -23 8 29 29 36 15 38 15
25 -1 -9 -13 -6 -12 8 2 12 11 24 31 26 45 2 14 2 19 0 12 -3 -7 -8 -10 -12
-8 -4 3 -30 -2 -57 -10 -28 -9 -63 -12 -82 -9 -21 4 -32 3 -28 -3 3 -6 -2 -8
-13 -5 -10 3 -22 -1 -26 -8 -5 -8 -4 -10 3 -5 7 4 12 5 12 2 0 -3 -10 -10 -21
-17 -15 -7 -19 -8 -15 0 4 7 1 9 -8 5 -9 -3 -14 -11 -13 -16 1 -6 -4 -13 -12
-16 -8 -3 -11 0 -7 7 4 6 -15 1 -41 -10 -36 -15 -63 -20 -105 -17 -31 2 -55 1
-52 -4 10 -15 -11 -8 -63 22 -29 17 -53 35 -53 41 0 6 -4 7 -10 4 -5 -3 -10
-1 -10 5 0 7 -8 9 -20 5 -11 -3 -20 -3 -20 2 0 4 -22 8 -50 8 -38 0 -54 5 -70
23 -21 22 -40 29 -40 14z"/>
</g>
</svg>
